<?xml version="1.0" encoding="UTF-8" standalone="no"?>
<svg width="10px" height="18px" viewBox="0 0 10 18" version="1.1" xmlns="http://www.w3.org/2000/svg" xmlns:xlink="http://www.w3.org/1999/xlink">
    <!-- Generator: Sketch 3.6.1 (26313) - http://www.bohemiancoding.com/sketch -->
    <title>social--fb</title>
    <desc>Created with Sketch.</desc>
    <defs></defs>
    <g id="Page-1" stroke="none" stroke-width="1" fill="none" fill-rule="evenodd">
        <path d="M9.36525077,0.00374520146 L7.03105396,0 C4.4086639,0 2.71396024,1.73870978 2.71396024,4.42982429 L2.71396024,6.4722699 L0.367029743,6.4722699 C0.164227084,6.4722699 0,6.63668425 0,6.83948691 L0,9.79875784 C0,10.0015605 0.164414344,10.1657876 0.367029743,10.1657876 L2.71396024,10.1657876 L2.71396024,17.6329703 C2.71396024,17.8357729 2.87818732,18 3.08098998,18 L6.1430667,18 C6.34586935,18 6.51009644,17.8355857 6.51009644,17.6329703 L6.51009644,10.1657876 L9.25420555,10.1657876 C9.45700821,10.1657876 9.62123529,10.0015605 9.62123529,9.79875784 L9.62235885,6.83948691 C9.62235885,6.74211167 9.58359602,6.64885615 9.51487157,6.57994445 C9.44614712,6.51103274 9.35251709,6.4722699 9.25514185,6.4722699 L6.51009644,6.4722699 L6.51009644,4.74086327 C6.51009644,3.9086795 6.70840486,3.48622078 7.79245342,3.48622078 L9.36487625,3.485659 C9.56749165,3.485659 9.73171874,3.32124466 9.73171874,3.11862926 L9.73171874,0.370774945 C9.73171874,0.168346806 9.56767891,0.00411972161 9.36525077,0.00374520146 L9.36525077,0.00374520146 Z" id="social--fb" fill="#FFFFFF"></path>
    </g>
</svg>