<?xml version="1.0" encoding="UTF-8" standalone="no"?>
<svg width="15px" height="13px" viewBox="0 0 15 13" version="1.1" xmlns="http://www.w3.org/2000/svg" xmlns:xlink="http://www.w3.org/1999/xlink">
    <!-- Generator: Sketch 3.8.3 (29802) - http://www.bohemiancoding.com/sketch -->
    <title>social--tw</title>
    <desc>Created with Sketch.</desc>
    <defs></defs>
    <g id="OMUT" stroke="none" stroke-width="1" fill="none" fill-rule="evenodd">
        <g id="1_tovar-1200-2-1" transform="translate(-786.000000, -803.000000)" fill="#FFFFFF">
            <path d="M799.232964,805.055251 C799.868639,804.649646 800.356401,804.0065 800.585314,803.240358 C799.990139,803.616857 799.332453,803.889138 798.630745,804.036545 C798.070787,803.398093 797.27047,803 796.384751,803 C794.685508,803 793.308505,804.469377 793.308505,806.281453 C793.308505,806.538712 793.334038,806.789398 793.386864,807.028817 C790.830076,806.891738 788.562951,805.586668 787.044198,803.599957 C786.779186,804.086307 786.627751,804.649646 786.627751,805.250542 C786.627751,806.388488 787.170981,807.39311 787.99683,807.982739 C787.49234,807.965839 787.017785,807.816554 786.602219,807.57244 L786.602219,807.612812 C786.602219,809.203308 787.662264,810.529973 789.071844,810.83042 C788.812995,810.90741 788.541821,810.945905 788.260081,810.945905 C788.061983,810.945905 787.868287,810.926188 787.681634,810.887693 C788.072548,812.190885 789.209192,813.141052 790.55626,813.166402 C789.502377,814.047089 788.175559,814.570995 786.734284,814.570995 C786.486001,814.570995 786.240359,814.556912 786,814.525928 C787.362036,815.456377 788.979398,816 790.71738,816 C796.378588,816 799.472442,810.999422 799.472442,806.662646 C799.472442,806.519934 799.470681,806.37816 799.464518,806.238264 C800.065857,805.775386 800.588836,805.197024 801,804.538856 C800.447966,804.79987 799.854552,804.976383 799.232964,805.055251 Z" id="social--tw"></path>
        </g>
    </g>
</svg>